<svg viewBox="0 0 32 32" xmlns="http://www.w3.org/2000/svg"><path fill-rule="evenodd" d="M12.117 16.459l3.395 3.468-1.779 1.817-.215.211c-3.244 3.23-4.168 5.91-2.772 8.045-2.739-.629-4.197-2.115-4.374-4.459-.174-2.289 1.598-5.179 5.315-8.67l.272-.253.158-.16zM9.694 2c-1.002 1.955-.175 4.085 2.48 6.39l4.28 3.696 2.283-2.302.098-.1c2.37-2.444 3.004-4.593 1.9-6.448l.123.037c2.643.815 3.907 2.264 3.793 4.346l-.006.098c-.157 2.096-1.685 4.617-4.584 7.564l.062-.063c3.795 3.11 5.685 5.781 5.67 8.016-.017 2.35-1.39 3.937-4.119 4.758 1.293-2.277.093-4.952-3.6-8.025l-7.003-6.127c-3.097-2.725-4.775-5.121-5.036-7.19C5.771 4.549 6.99 2.999 9.694 2z"/></svg>