<svg viewBox="0 0 32 32" version="1.1" xmlns="http://www.w3.org/2000/svg">
    <path fill="#000000" fill-rule="evenodd" d="M12.1166541,16.4587808 L15.512132,19.9271769 L13.7333155,21.7440532 L13.5184245,21.9554018 C10.2738745,25.1841832 9.34983552,27.8657159 10.7463074,30 C8.00746129,29.3713084 6.54928977,27.8849702 6.37179285,25.5409853 C6.19847232,23.252153 7.97010641,20.3622912 11.6866951,16.8713999 L11.6866951,16.8713999 L11.9587521,16.6179993 L12.1166541,16.4587808 Z M9.69382793,2 C8.69248448,3.95459937 9.51927922,6.08475213 12.1742121,8.39045827 L12.1742121,8.39045827 L16.453737,12.0858359 L18.7367807,9.78391298 L18.8351696,9.68332386 C21.2055063,7.23968971 21.8389548,5.09058132 20.7355151,3.23599869 L20.7355151,3.23599869 L20.8584393,3.27316386 C23.5005979,4.088159 24.7647847,5.53689162 24.6509999,7.61936173 L24.6509999,7.61936173 L24.6446632,7.71726631 C24.488054,9.81255121 22.9602022,12.3336825 20.061108,15.2806601 L20.1225725,15.217993 C23.917814,18.3274806 25.8077408,20.9993948 25.7925253,23.2337355 C25.7761406,25.5845769 24.4034921,27.1705296 21.6743943,27.9915935 C22.966876,25.7152077 21.7668389,23.0404202 18.074283,19.9672308 L18.074283,19.9672308 L11.0706417,13.8396329 C7.97418735,11.1153244 6.29575721,8.7187442 6.0353513,6.64989237 C5.77087656,4.54871473 6.99036877,2.99875061 9.69382793,2 Z"></path>
</svg>